<svg width="17" height="16" viewBox="0 0 17 16" fill="none" xmlns="http://www.w3.org/2000/svg">
<g clip-path="url(#clip0_996_18419)">
<rect x="0.800018" width="16" height="16" fill="#1BBB82"/>
<path fill-rule="evenodd" clip-rule="evenodd" d="M10.9517 9.66667C12.5616 9.42415 13.8 8.03612 13.8 6.35397C13.8 4.50155 12.2985 3 10.446 3C8.7639 3 7.37587 4.23839 7.13335 5.8483H7.14883C9.16638 6.00826 10.7918 7.63364 10.9517 9.63571V9.66667ZM7.40002 6.34359C9.02566 6.4718 10.3282 7.77436 10.4564 9.4C10.4616 9.48718 10.4667 9.57949 10.4667 9.66667C10.4667 11.5077 8.97438 13 7.13335 13C5.29233 13 3.80002 11.5077 3.80002 9.66667C3.80002 7.82564 5.29233 6.33333 7.13335 6.33333C7.22053 6.33333 7.31284 6.33846 7.40002 6.34359ZM7.13335 10.9487L7.58463 10.1179L8.4154 9.66667L7.58463 9.21538L7.13335 8.38462L6.68207 9.21538L5.8513 9.66667L6.68207 10.1179L7.13335 10.9487Z" fill="white"/>
</g>
<defs>
<clipPath id="clip0_996_18419">
<rect x="0.800018" width="16" height="16" rx="8" fill="white"/>
</clipPath>
</defs>
</svg>
