<svg width="156" height="36" viewBox="0 0 156 36" fill="none" xmlns="http://www.w3.org/2000/svg">
<path d="M24.4286 3.85716C23.7889 4.49681 22.6914 4.69138 22.0517 4.05173L19.2728 1.27281C18.5699 0.56987 17.4302 0.569869 16.7272 1.27281L13.9483 4.05173C13.3087 4.69139 12.2111 4.49681 11.5714 3.85716C9.4412 1.72691 5.9874 1.72692 3.85716 3.85716C1.72692 5.9874 1.72691 9.4412 3.85716 11.5714C4.49682 12.2111 4.69139 13.3086 4.05174 13.9483L1.27281 16.7272C0.56987 17.4302 0.56987 18.5699 1.27281 19.2728L4.05173 22.0517C4.69139 22.6914 5.78894 22.4968 6.42859 21.8571C8.55883 19.7269 12.0126 19.7269 14.1429 21.8571C16.2731 23.9874 16.2731 27.4412 14.1429 29.5714C13.5032 30.2111 13.3087 31.3086 13.9483 31.9483L16.7272 34.7272C17.4302 35.4302 18.5699 35.4302 19.2728 34.7272L22.0517 31.9483C22.6914 31.3086 23.7889 31.5032 24.4286 32.1429C26.5588 34.2731 30.0126 34.2731 32.1429 32.1429C34.2731 30.0126 34.2731 26.5588 32.1429 24.4286C31.5032 23.7889 31.3086 22.6914 31.9483 22.0517L34.7272 19.2728C35.4302 18.5699 35.4302 17.4302 34.7272 16.7272L31.9483 13.9483C31.3087 13.3086 31.5032 12.2111 32.1429 11.5714C34.2731 9.44121 34.2731 5.98741 32.1429 3.85716C30.0126 1.72691 26.5588 1.72692 24.4286 3.85716Z" fill="#7075E9"/>
<path d="M57.162 15.144C57.162 15.816 57 16.446 56.676 17.034C56.364 17.622 55.866 18.096 55.182 18.456C54.51 18.816 53.658 18.996 52.626 18.996H50.52V23.82H48V11.256H52.626C53.598 11.256 54.426 11.424 55.11 11.76C55.794 12.096 56.304 12.558 56.64 13.146C56.988 13.734 57.162 14.4 57.162 15.144ZM52.518 16.962C53.214 16.962 53.73 16.806 54.066 16.494C54.402 16.17 54.57 15.72 54.57 15.144C54.57 13.92 53.886 13.308 52.518 13.308H50.52V16.962H52.518Z" fill="white"/>
<path d="M68.1852 13.848V23.82H65.6472V22.56C65.3232 22.992 64.8972 23.334 64.3692 23.586C63.8532 23.826 63.2892 23.946 62.6772 23.946C61.8972 23.946 61.2072 23.784 60.6072 23.46C60.0072 23.124 59.5332 22.638 59.1852 22.002C58.8492 21.354 58.6812 20.586 58.6812 19.698V13.848H61.2012V19.338C61.2012 20.13 61.3992 20.742 61.7952 21.174C62.1912 21.594 62.7312 21.804 63.4152 21.804C64.1112 21.804 64.6572 21.594 65.0532 21.174C65.4492 20.742 65.6472 20.13 65.6472 19.338V13.848H68.1852Z" fill="white"/>
<path d="M129 24V14.1248H131.67V15.3725C132.011 14.9447 132.46 14.6061 133.015 14.3565C133.558 14.1188 134.152 14 134.795 14C135.616 14 136.342 14.1604 136.973 14.4813C137.605 14.814 138.104 15.2953 138.47 15.9251C138.823 16.5668 139 17.3274 139 18.2068V24H136.348V18.5633C136.348 17.779 136.14 17.1729 135.723 16.7451C135.307 16.3292 134.739 16.1212 134.019 16.1212C133.287 16.1212 132.712 16.3292 132.295 16.7451C131.879 17.1729 131.67 17.779 131.67 18.5633V24H129Z" fill="#7075E9"/>
<path d="M72.7956 21.75H77.2416V23.82H69.9336V21.786L74.2896 15.918H69.9516V13.848H77.1876V15.882L72.7956 21.75Z" fill="white"/>
<path d="M81.3167 21.75H85.7627V23.82H78.4547V21.786L82.8107 15.918H78.4727V13.848H85.7087V15.882L81.3167 21.75Z" fill="white"/>
<path d="M90.0539 10.5V23.82H87.5339V10.5H90.0539Z" fill="white"/>
<path d="M110 6V23H107V6H110Z" fill="#7075E9"/>
<path d="M101.634 18.618C101.634 18.978 101.61 19.302 101.562 19.59H94.2717C94.3317 20.31 94.5837 20.874 95.0277 21.282C95.4717 21.69 96.0177 21.894 96.6657 21.894C97.6017 21.894 98.2677 21.492 98.6637 20.688H101.382C101.094 21.648 100.542 22.44 99.7257 23.064C98.9097 23.676 97.9077 23.982 96.7197 23.982C95.7597 23.982 94.8957 23.772 94.1277 23.352C93.3717 22.92 92.7777 22.314 92.3457 21.534C91.9257 20.754 91.7157 19.854 91.7157 18.834C91.7157 17.802 91.9257 16.896 92.3457 16.116C92.7657 15.336 93.3537 14.736 94.1097 14.316C94.8657 13.896 95.7357 13.686 96.7197 13.686C97.6677 13.686 98.5137 13.89 99.2577 14.298C100.014 14.706 100.596 15.288 101.004 16.044C101.424 16.788 101.634 17.646 101.634 18.618ZM99.0237 17.898C99.0117 17.25 98.7777 16.734 98.3217 16.35C97.8657 15.954 97.3077 15.756 96.6477 15.756C96.0237 15.756 95.4957 15.948 95.0637 16.332C94.6437 16.704 94.3857 17.226 94.2897 17.898H99.0237Z" fill="white"/>
<path d="M126.918 18.932C126.918 19.292 126.894 19.616 126.846 19.904H119.556C119.616 20.624 119.868 21.188 120.312 21.596C120.756 22.004 121.302 22.208 121.95 22.208C122.886 22.208 123.552 21.806 123.948 21.002H126.666C126.378 21.962 125.826 22.754 125.01 23.378C124.194 23.99 123.192 24.296 122.004 24.296C121.044 24.296 120.18 24.086 119.412 23.666C118.656 23.234 118.062 22.628 117.63 21.848C117.21 21.068 117 20.168 117 19.148C117 18.116 117.21 17.21 117.63 16.43C118.05 15.65 118.638 15.05 119.394 14.63C120.15 14.21 121.02 14 122.004 14C122.952 14 123.798 14.204 124.542 14.612C125.298 15.02 125.88 15.602 126.288 16.358C126.708 17.102 126.918 17.96 126.918 18.932ZM124.308 18.212C124.296 17.564 124.062 17.048 123.606 16.664C123.15 16.268 122.592 16.07 121.932 16.07C121.308 16.07 120.78 16.262 120.348 16.646C119.928 17.018 119.67 17.54 119.574 18.212H124.308Z" fill="#7075E9"/>
<path d="M150.083 22.3857C149.708 22.8452 149.194 23.2261 148.542 23.5284C147.875 23.8428 147.118 24 146.271 24C145.285 24 144.396 23.7884 143.604 23.3652C142.799 22.942 142.167 22.3374 141.708 21.5514C141.236 20.7775 141 19.8767 141 18.8489C141 17.821 141.236 16.9081 141.708 16.11C142.167 15.3241 142.799 14.7134 143.604 14.2781C144.396 13.8428 145.285 13.6252 146.271 13.6252C147.118 13.6252 147.868 13.7763 148.521 14.0786C149.16 14.3809 149.681 14.7618 150.083 15.2213V6H153V23.8368H150.083V22.3857ZM143.979 18.8489C143.979 19.4534 144.125 19.9734 144.417 20.4087C144.694 20.8561 145.069 21.1947 145.542 21.4244C146 21.6542 146.5 21.769 147.042 21.769C147.569 21.769 148.069 21.6481 148.542 21.4063C149 21.1765 149.375 20.838 149.667 20.3906C149.944 19.9432 150.083 19.4172 150.083 18.8126C150.083 18.208 149.944 17.682 149.667 17.2346C149.375 16.7872 149 16.4426 148.542 16.2007C148.069 15.971 147.569 15.8561 147.042 15.8561C146.5 15.8561 146 15.977 145.542 16.2189C145.069 16.4607 144.694 16.8053 144.417 17.2527C144.125 17.7001 143.979 18.2322 143.979 18.8489Z" fill="#7075E9"/>
<path d="M107.031 21.087H115.277V24.087H107.031V21.087Z" fill="#7075E9"/>
</svg>
