<svg width="156" height="36" viewBox="0 0 156 36" fill="none" xmlns="http://www.w3.org/2000/svg">
<path d="M24.4286 3.85716C23.7889 4.49682 22.6914 4.69139 22.0517 4.05173L19.2728 1.27281C18.5699 0.56987 17.4302 0.569869 16.7272 1.27281L13.9483 4.05174C13.3087 4.69139 12.2111 4.49682 11.5714 3.85716C9.4412 1.72691 5.9874 1.72692 3.85716 3.85716C1.72692 5.9874 1.72691 9.4412 3.85716 11.5714C4.49682 12.2111 4.69139 13.3086 4.05174 13.9483L1.27281 16.7272C0.56987 17.4302 0.56987 18.5699 1.27281 19.2728L4.05173 22.0517C4.69139 22.6914 5.78894 22.4968 6.42859 21.8572C8.55883 19.7269 12.0126 19.7269 14.1429 21.8572C16.2731 23.9874 16.2731 27.4412 14.1429 29.5714C13.5032 30.2111 13.3087 31.3086 13.9483 31.9483L16.7272 34.7272C17.4302 35.4302 18.5699 35.4302 19.2728 34.7272L22.0517 31.9483C22.6914 31.3086 23.7889 31.5032 24.4286 32.1429C26.5588 34.2731 30.0126 34.2731 32.1429 32.1429C34.2731 30.0126 34.2731 26.5588 32.1429 24.4286C31.5032 23.7889 31.3086 22.6914 31.9483 22.0517L34.7272 19.2728C35.4302 18.5699 35.4302 17.4302 34.7272 16.7272L31.9483 13.9483C31.3087 13.3087 31.5032 12.2111 32.1429 11.5714C34.2731 9.44121 34.2731 5.98741 32.1429 3.85716C30.0126 1.72691 26.5588 1.72692 24.4286 3.85716Z" fill="#7075E9"/>
<path d="M47.26 11.04H52.732C53.146 11.04 53.506 11.064 53.812 11.112C54.934 11.286 55.771 11.748 56.323 12.498C56.881 13.242 57.16 14.184 57.16 15.324C57.16 16.458 56.881 17.4 56.323 18.15C55.765 18.9 54.928 19.362 53.812 19.536C53.506 19.584 53.146 19.608 52.732 19.608H49.708V24H47.26V11.04ZM52.624 17.322C52.966 17.322 53.242 17.292 53.452 17.232C53.902 17.112 54.22 16.872 54.406 16.512C54.598 16.146 54.694 15.75 54.694 15.324C54.694 14.898 54.598 14.505 54.406 14.145C54.22 13.779 53.902 13.536 53.452 13.416C53.242 13.356 52.966 13.326 52.624 13.326H49.708V17.322H52.624ZM62.585 24.288C61.445 24.288 60.593 23.997 60.029 23.415C59.471 22.833 59.123 22.218 58.985 21.57C58.853 20.922 58.787 20.31 58.787 19.734V14.28H61.271V18.87C61.271 19.362 61.307 19.824 61.379 20.256C61.451 20.688 61.64 21.084 61.946 21.444C62.258 21.804 62.729 21.984 63.359 21.984C63.923 21.984 64.409 21.792 64.817 21.408C65.225 21.018 65.429 20.286 65.429 19.212V14.28H67.895V24H65.735V23.001C65.369 23.409 64.922 23.727 64.394 23.955C63.866 24.177 63.263 24.288 62.585 24.288ZM69.5104 23.694L74.2804 16.404H70.0504V14.28H78.0604V14.586L73.3084 21.876H77.8804V24H69.5104V23.694ZM79.1432 23.694L83.9132 16.404H79.6832V14.28H87.6932V14.586L82.9412 21.876H87.5132V24H79.1432V23.694ZM89.856 11.04H92.304V24H89.856V11.04ZM99.5202 24.27C98.5362 24.27 97.6602 24.057 96.8922 23.631C96.1302 23.205 95.5332 22.611 95.1012 21.849C94.6752 21.087 94.4622 20.226 94.4622 19.266C94.4622 18.222 94.6692 17.304 95.0832 16.512C95.5032 15.714 96.0852 15.099 96.8292 14.667C97.5732 14.229 98.4222 14.01 99.3762 14.01C100.312 14.01 101.125 14.217 101.815 14.631C102.505 15.045 103.033 15.633 103.399 16.395C103.771 17.157 103.957 18.051 103.957 19.077C103.957 19.239 103.945 19.488 103.921 19.824H97.0992C97.1892 20.52 97.4262 21.054 97.8102 21.426C98.2002 21.798 98.7222 21.984 99.3762 21.984C99.8502 21.984 100.258 21.879 100.6 21.669C100.948 21.459 101.212 21.156 101.392 20.76L103.84 21.462C103.6 22.044 103.261 22.548 102.823 22.974C102.385 23.394 101.881 23.715 101.311 23.937C100.741 24.159 100.144 24.27 99.5202 24.27ZM101.446 18.006C101.362 17.352 101.161 16.878 100.843 16.584C100.531 16.284 100.078 16.134 99.4842 16.134C98.1942 16.134 97.4202 16.758 97.1622 18.006H101.446ZM109.737 11.04H112.185V21.714H117.765V24H109.737V11.04ZM123.813 24.27C122.829 24.27 121.953 24.057 121.185 23.631C120.423 23.205 119.826 22.611 119.394 21.849C118.968 21.087 118.755 20.226 118.755 19.266C118.755 18.222 118.962 17.304 119.376 16.512C119.796 15.714 120.378 15.099 121.122 14.667C121.866 14.229 122.715 14.01 123.669 14.01C124.605 14.01 125.418 14.217 126.108 14.631C126.798 15.045 127.326 15.633 127.692 16.395C128.064 17.157 128.25 18.051 128.25 19.077C128.25 19.239 128.238 19.488 128.214 19.824H121.392C121.482 20.52 121.719 21.054 122.103 21.426C122.493 21.798 123.015 21.984 123.669 21.984C124.143 21.984 124.551 21.879 124.893 21.669C125.241 21.459 125.505 21.156 125.685 20.76L128.133 21.462C127.893 22.044 127.554 22.548 127.116 22.974C126.678 23.394 126.174 23.715 125.604 23.937C125.034 24.159 124.437 24.27 123.813 24.27ZM125.739 18.006C125.655 17.352 125.454 16.878 125.136 16.584C124.824 16.284 124.371 16.134 123.777 16.134C122.487 16.134 121.713 16.758 121.455 18.006H125.739ZM136.607 19.41C136.607 18.918 136.571 18.456 136.499 18.024C136.427 17.592 136.235 17.196 135.923 16.836C135.617 16.476 135.149 16.296 134.519 16.296C133.955 16.296 133.469 16.491 133.061 16.881C132.653 17.265 132.449 17.994 132.449 19.068V24H129.965V14.28H132.143V15.279C132.509 14.871 132.956 14.556 133.484 14.334C134.012 14.106 134.615 13.992 135.293 13.992C136.433 13.992 137.282 14.283 137.84 14.865C138.404 15.447 138.752 16.062 138.884 16.71C139.022 17.358 139.091 17.97 139.091 18.546V24H136.607V19.41ZM145.192 24.27C144.316 24.27 143.536 24.048 142.852 23.604C142.174 23.154 141.646 22.539 141.268 21.759C140.896 20.979 140.71 20.106 140.71 19.14C140.71 18.156 140.899 17.274 141.277 16.494C141.661 15.714 142.201 15.105 142.897 14.667C143.599 14.229 144.406 14.01 145.318 14.01C146.152 14.01 146.884 14.208 147.514 14.604V11.04H149.98V24H147.82V23.442C147.094 23.994 146.218 24.27 145.192 24.27ZM143.302 19.14C143.302 20.01 143.494 20.721 143.878 21.273C144.262 21.819 144.832 22.092 145.588 22.092C147.076 22.092 147.82 21.108 147.82 19.14C147.82 18.216 147.646 17.493 147.298 16.971C146.956 16.449 146.416 16.188 145.678 16.188C145.15 16.188 144.709 16.32 144.355 16.584C144.001 16.842 143.737 17.193 143.563 17.637C143.389 18.081 143.302 18.582 143.302 19.14Z" fill="#363870"/>
</svg>
