<svg width="150" height="36" viewBox="0 0 150 36" fill="none" xmlns="http://www.w3.org/2000/svg">
<path d="M24.4286 3.85716C23.7889 4.49682 22.6914 4.69139 22.0517 4.05173L19.2728 1.27281C18.5699 0.56987 17.4302 0.569869 16.7272 1.27281L13.9483 4.05174C13.3087 4.69139 12.2111 4.49682 11.5714 3.85716C9.4412 1.72691 5.9874 1.72692 3.85716 3.85716C1.72692 5.9874 1.72691 9.4412 3.85716 11.5714C4.49682 12.2111 4.69139 13.3086 4.05174 13.9483L1.27281 16.7272C0.56987 17.4302 0.56987 18.5699 1.27281 19.2728L4.05173 22.0517C4.69139 22.6914 5.78894 22.4968 6.42859 21.8572C8.55883 19.7269 12.0126 19.7269 14.1429 21.8572C16.2731 23.9874 16.2731 27.4412 14.1429 29.5714C13.5032 30.2111 13.3087 31.3086 13.9483 31.9483L16.7272 34.7272C17.4302 35.4302 18.5699 35.4302 19.2728 34.7272L22.0517 31.9483C22.6914 31.3086 23.7889 31.5032 24.4286 32.1429C26.5588 34.2731 30.0126 34.2731 32.1429 32.1429C34.2731 30.0126 34.2731 26.5588 32.1429 24.4286C31.5032 23.7889 31.3086 22.6914 31.9483 22.0517L34.7272 19.2728C35.4302 18.5699 35.4302 17.4302 34.7272 16.7272L31.9483 13.9483C31.3087 13.3087 31.5032 12.2111 32.1429 11.5714C34.2731 9.44121 34.2731 5.98741 32.1429 3.85716C30.0126 1.72691 26.5588 1.72692 24.4286 3.85716Z" fill="#7075E9"/>
<path d="M57.162 15.144C57.162 15.816 57 16.446 56.676 17.034C56.364 17.622 55.866 18.096 55.182 18.456C54.51 18.816 53.658 18.996 52.626 18.996H50.52V23.82H48V11.256H52.626C53.598 11.256 54.426 11.424 55.11 11.76C55.794 12.096 56.304 12.558 56.64 13.146C56.988 13.734 57.162 14.4 57.162 15.144ZM52.518 16.962C53.214 16.962 53.73 16.806 54.066 16.494C54.402 16.17 54.57 15.72 54.57 15.144C54.57 13.92 53.886 13.308 52.518 13.308H50.52V16.962H52.518Z" fill="#363870"/>
<path d="M68.1852 13.848V23.82H65.6472V22.56C65.3232 22.992 64.8972 23.334 64.3692 23.586C63.8532 23.826 63.2892 23.946 62.6772 23.946C61.8972 23.946 61.2072 23.784 60.6072 23.46C60.0072 23.124 59.5332 22.638 59.1852 22.002C58.8492 21.354 58.6812 20.586 58.6812 19.698V13.848H61.2012V19.338C61.2012 20.13 61.3992 20.742 61.7952 21.174C62.1912 21.594 62.7312 21.804 63.4152 21.804C64.1112 21.804 64.6572 21.594 65.0532 21.174C65.4492 20.742 65.6472 20.13 65.6472 19.338V13.848H68.1852Z" fill="#363870"/>
<path d="M72.7956 21.75H77.2416V23.82H69.9336V21.786L74.2896 15.918H69.9516V13.848H77.1876V15.882L72.7956 21.75Z" fill="#363870"/>
<path d="M81.3167 21.75H85.7627V23.82H78.4547V21.786L82.8107 15.918H78.4727V13.848H85.7087V15.882L81.3167 21.75Z" fill="#363870"/>
<path d="M90.0539 10.5V23.82H87.5339V10.5H90.0539Z" fill="#363870"/>
<path d="M101.634 18.618C101.634 18.978 101.61 19.302 101.562 19.59H94.2717C94.3317 20.31 94.5837 20.874 95.0277 21.282C95.4717 21.69 96.0177 21.894 96.6657 21.894C97.6017 21.894 98.2677 21.492 98.6637 20.688H101.382C101.094 21.648 100.542 22.44 99.7257 23.064C98.9097 23.676 97.9077 23.982 96.7197 23.982C95.7597 23.982 94.8957 23.772 94.1277 23.352C93.3717 22.92 92.7777 22.314 92.3457 21.534C91.9257 20.754 91.7157 19.854 91.7157 18.834C91.7157 17.802 91.9257 16.896 92.3457 16.116C92.7657 15.336 93.3537 14.736 94.1097 14.316C94.8657 13.896 95.7357 13.686 96.7197 13.686C97.6677 13.686 98.5137 13.89 99.2577 14.298C100.014 14.706 100.596 15.288 101.004 16.044C101.424 16.788 101.634 17.646 101.634 18.618ZM99.0237 17.898C99.0117 17.25 98.7777 16.734 98.3217 16.35C97.8657 15.954 97.3077 15.756 96.6477 15.756C96.0237 15.756 95.4957 15.948 95.0637 16.332C94.6437 16.704 94.3857 17.226 94.2897 17.898H99.0237Z" fill="#363870"/>
<path d="M109.922 21.822H114.062V23.82H107.402V11.256H109.922V21.822Z" fill="#363870"/>
<path d="M124.754 18.618C124.754 18.978 124.73 19.302 124.682 19.59H117.392C117.452 20.31 117.704 20.874 118.148 21.282C118.592 21.69 119.138 21.894 119.786 21.894C120.722 21.894 121.388 21.492 121.784 20.688H124.502C124.214 21.648 123.662 22.44 122.846 23.064C122.03 23.676 121.028 23.982 119.84 23.982C118.88 23.982 118.016 23.772 117.248 23.352C116.492 22.92 115.898 22.314 115.466 21.534C115.046 20.754 114.836 19.854 114.836 18.834C114.836 17.802 115.046 16.896 115.466 16.116C115.886 15.336 116.474 14.736 117.23 14.316C117.986 13.896 118.856 13.686 119.84 13.686C120.788 13.686 121.634 13.89 122.378 14.298C123.134 14.706 123.716 15.288 124.124 16.044C124.544 16.788 124.754 17.646 124.754 18.618ZM122.144 17.898C122.132 17.25 121.898 16.734 121.442 16.35C120.986 15.954 120.428 15.756 119.768 15.756C119.144 15.756 118.616 15.948 118.184 16.332C117.764 16.704 117.506 17.226 117.41 17.898H122.144Z" fill="#363870"/>
<path d="M131.939 13.704C133.127 13.704 134.087 14.082 134.819 14.838C135.551 15.582 135.917 16.626 135.917 17.97V23.82H133.397V18.312C133.397 17.52 133.199 16.914 132.803 16.494C132.407 16.062 131.867 15.846 131.183 15.846C130.487 15.846 129.935 16.062 129.527 16.494C129.131 16.914 128.933 17.52 128.933 18.312V23.82H126.413V13.848H128.933V15.09C129.269 14.658 129.695 14.322 130.211 14.082C130.739 13.83 131.315 13.704 131.939 13.704Z" fill="#363870"/>
<path d="M137.486 18.798C137.486 17.79 137.684 16.896 138.08 16.116C138.488 15.336 139.04 14.736 139.736 14.316C140.432 13.896 141.206 13.686 142.058 13.686C142.706 13.686 143.324 13.83 143.912 14.118C144.5 14.394 144.968 14.766 145.316 15.234V10.5H147.872V23.82H145.316V22.344C145.004 22.836 144.566 23.232 144.002 23.532C143.438 23.832 142.784 23.982 142.04 23.982C141.2 23.982 140.432 23.766 139.736 23.334C139.04 22.902 138.488 22.296 138.08 21.516C137.684 20.724 137.486 19.818 137.486 18.798ZM145.334 18.834C145.334 18.222 145.214 17.7 144.974 17.268C144.734 16.824 144.41 16.488 144.002 16.26C143.594 16.02 143.156 15.9 142.688 15.9C142.22 15.9 141.788 16.014 141.392 16.242C140.996 16.47 140.672 16.806 140.42 17.25C140.18 17.682 140.06 18.198 140.06 18.798C140.06 19.398 140.18 19.926 140.42 20.382C140.672 20.826 140.996 21.168 141.392 21.408C141.8 21.648 142.232 21.768 142.688 21.768C143.156 21.768 143.594 21.654 144.002 21.426C144.41 21.186 144.734 20.85 144.974 20.418C145.214 19.974 145.334 19.446 145.334 18.834Z" fill="#363870"/>
</svg>
