<svg width="156" height="36" viewBox="0 0 156 36" fill="none" xmlns="http://www.w3.org/2000/svg">
<path d="M24.4286 3.85716C23.7889 4.49682 22.6914 4.69139 22.0517 4.05173L19.2728 1.27281C18.5699 0.56987 17.4302 0.569869 16.7272 1.27281L13.9483 4.05174C13.3087 4.69139 12.2111 4.49682 11.5714 3.85716C9.4412 1.72691 5.9874 1.72692 3.85716 3.85716C1.72692 5.9874 1.72691 9.4412 3.85716 11.5714C4.49682 12.2111 4.69139 13.3086 4.05174 13.9483L1.27281 16.7272C0.56987 17.4302 0.56987 18.5699 1.27281 19.2728L4.05173 22.0517C4.69139 22.6914 5.78894 22.4968 6.42859 21.8572C8.55883 19.7269 12.0126 19.7269 14.1429 21.8572C16.2731 23.9874 16.2731 27.4412 14.1429 29.5714C13.5032 30.2111 13.3087 31.3086 13.9483 31.9483L16.7272 34.7272C17.4302 35.4302 18.5699 35.4302 19.2728 34.7272L22.0517 31.9483C22.6914 31.3086 23.7889 31.5032 24.4286 32.1429C26.5588 34.2731 30.0126 34.2731 32.1429 32.1429C34.2731 30.0126 34.2731 26.5588 32.1429 24.4286C31.5032 23.7889 31.3086 22.6914 31.9483 22.0517L34.7272 19.2728C35.4302 18.5699 35.4302 17.4302 34.7272 16.7272L31.9483 13.9483C31.3087 13.3087 31.5032 12.2111 32.1429 11.5714C34.2731 9.44121 34.2731 5.98741 32.1429 3.85716C30.0126 1.72691 26.5588 1.72692 24.4286 3.85716Z" fill="#7075E9"/>
<path d="M47.33 10.32H53.106C53.543 10.32 53.923 10.3453 54.246 10.396C55.4303 10.5797 56.3138 11.0673 56.8965 11.859C57.4855 12.6443 57.78 13.6387 57.78 14.842C57.78 16.039 57.4855 17.0333 56.8965 17.825C56.3075 18.6167 55.424 19.1043 54.246 19.288C53.923 19.3387 53.543 19.364 53.106 19.364H49.914V24H47.33V10.32ZM52.992 16.951C53.353 16.951 53.6443 16.9193 53.866 16.856C54.341 16.7293 54.6767 16.476 54.873 16.096C55.0757 15.7097 55.177 15.2917 55.177 14.842C55.177 14.3923 55.0757 13.9775 54.873 13.5975C54.6767 13.2112 54.341 12.9547 53.866 12.828C53.6443 12.7647 53.353 12.733 52.992 12.733H49.914V16.951H52.992ZM62.9364 24.304C61.7331 24.304 60.8338 23.9968 60.2384 23.3825C59.6494 22.7682 59.2821 22.119 59.1364 21.435C58.9971 20.751 58.9274 20.105 58.9274 19.497V13.74H61.5494V18.585C61.5494 19.1043 61.5874 19.592 61.6634 20.048C61.7394 20.504 61.9389 20.922 62.2619 21.302C62.5913 21.682 63.0884 21.872 63.7534 21.872C64.3488 21.872 64.8618 21.6693 65.2924 21.264C65.7231 20.8523 65.9384 20.0797 65.9384 18.946V13.74H68.5414V24H66.2614V22.9455C65.8751 23.3762 65.4033 23.7118 64.8459 23.9525C64.2886 24.1868 63.6521 24.304 62.9364 24.304ZM69.6765 23.677L74.7115 15.982H70.2465V13.74H78.7015V14.063L73.6855 21.758H78.5115V24H69.6765V23.677ZM79.2745 23.677L84.3095 15.982H79.8445V13.74H88.2995V14.063L83.2835 21.758H88.1095V24H79.2745V23.677ZM90.0125 10.32H92.5965V24H90.0125V10.32ZM99.6435 24.285C98.6049 24.285 97.6802 24.0602 96.8695 23.6105C96.0652 23.1608 95.435 22.5338 94.979 21.7295C94.5294 20.9252 94.3045 20.0163 94.3045 19.003C94.3045 17.901 94.523 16.932 94.96 16.096C95.4034 15.2537 96.0177 14.6045 96.803 14.1485C97.5884 13.6862 98.4845 13.455 99.4915 13.455C100.48 13.455 101.338 13.6735 102.066 14.1105C102.794 14.5475 103.352 15.1682 103.738 15.9725C104.131 16.7768 104.327 17.7205 104.327 18.8035C104.327 18.9745 104.314 19.2373 104.289 19.592H97.088C97.183 20.3267 97.4332 20.8903 97.8385 21.283C98.2502 21.6757 98.8012 21.872 99.4915 21.872C99.9919 21.872 100.423 21.7612 100.784 21.5395C101.151 21.3178 101.43 20.998 101.62 20.58L104.204 21.321C103.95 21.9353 103.592 22.4673 103.13 22.917C102.668 23.3603 102.136 23.6992 101.534 23.9335C100.932 24.1678 100.302 24.285 99.6435 24.285ZM101.677 17.673C101.588 16.9827 101.376 16.4823 101.04 16.172C100.711 15.8553 100.233 15.697 99.6055 15.697C98.2439 15.697 97.4269 16.3557 97.1545 17.673H101.677ZM109.288 10.32H111.872V21.587H117.762V24H109.288V10.32ZM123.576 24.285C122.537 24.285 121.613 24.0602 120.802 23.6105C119.998 23.1608 119.368 22.5338 118.912 21.7295C118.462 20.9252 118.237 20.0163 118.237 19.003C118.237 17.901 118.456 16.932 118.893 16.096C119.336 15.2537 119.95 14.6045 120.736 14.1485C121.521 13.6862 122.417 13.455 123.424 13.455C124.412 13.455 125.27 13.6735 125.999 14.1105C126.727 14.5475 127.284 15.1682 127.671 15.9725C128.063 16.7768 128.26 17.7205 128.26 18.8035C128.26 18.9745 128.247 19.2373 128.222 19.592H121.021C121.116 20.3267 121.366 20.8903 121.771 21.283C122.183 21.6757 122.734 21.872 123.424 21.872C123.924 21.872 124.355 21.7612 124.716 21.5395C125.083 21.3178 125.362 20.998 125.552 20.58L128.136 21.321C127.883 21.9353 127.525 22.4673 127.063 22.917C126.6 23.3603 126.068 23.6992 125.467 23.9335C124.865 24.1678 124.235 24.285 123.576 24.285ZM125.609 17.673C125.52 16.9827 125.308 16.4823 124.973 16.172C124.643 15.8553 124.165 15.697 123.538 15.697C122.176 15.697 121.359 16.3557 121.087 17.673H125.609ZM136.51 19.155C136.51 18.6357 136.472 18.148 136.396 17.692C136.32 17.236 136.118 16.818 135.788 16.438C135.465 16.058 134.971 15.868 134.306 15.868C133.711 15.868 133.198 16.0738 132.767 16.4855C132.337 16.8908 132.121 17.6603 132.121 18.794V24H129.499V13.74H131.798V14.7945C132.185 14.3638 132.657 14.0313 133.214 13.797C133.771 13.5563 134.408 13.436 135.123 13.436C136.327 13.436 137.223 13.7432 137.812 14.3575C138.407 14.9718 138.775 15.621 138.914 16.305C139.06 16.989 139.132 17.635 139.132 18.243V24H136.51V19.155ZM145.003 24.285C144.078 24.285 143.255 24.0507 142.533 23.582C141.817 23.107 141.26 22.4578 140.861 21.6345C140.468 20.8112 140.272 19.8897 140.272 18.87C140.272 17.8313 140.471 16.9003 140.87 16.077C141.276 15.2537 141.846 14.6108 142.58 14.1485C143.321 13.6862 144.173 13.455 145.136 13.455C146.016 13.455 146.789 13.664 147.454 14.082V10.32H150.057V24H147.777V23.411C147.011 23.9937 146.086 24.285 145.003 24.285ZM143.008 18.87C143.008 19.7883 143.211 20.5388 143.616 21.1215C144.021 21.6978 144.623 21.986 145.421 21.986C146.992 21.986 147.777 20.9473 147.777 18.87C147.777 17.8947 147.593 17.1315 147.226 16.5805C146.865 16.0295 146.295 15.754 145.516 15.754C144.959 15.754 144.493 15.8933 144.119 16.172C143.746 16.4443 143.467 16.8148 143.283 17.2835C143.1 17.7522 143.008 18.281 143.008 18.87Z" fill="#363870"/>
</svg>
